<?xml version="1.0" encoding="utf-8"?>
<!-- Generator: Adobe Illustrator 24.3.0, SVG Export Plug-In . SVG Version: 6.00 Build 0)  -->
<svg version="1.1" id="Layer_1" xmlns="http://www.w3.org/2000/svg" xmlns:xlink="http://www.w3.org/1999/xlink" x="0px" y="0px"
	 viewBox="0 0 100 125" style="enable-background:new 0 0 100 125;" xml:space="preserve">
<g>
	<path d="M26.1,58.8C24.5,60.2,22.4,61,20,61s-4.5-0.9-6.1-2.3c-3.4,1.1-8.3,2.3-8.8,5.8c-1,6.2,8.2,9.8,14.9,9.8s15.9-3.6,14.9-9.8
		C34.4,61.1,29.6,59.9,26.1,58.8z"/>
	<path d="M23.1,51.6c0-0.1,0-0.1-0.1-0.2c-0.9,0.2-2,0.3-3,0.3c-1.1,0-2.1-0.1-3-0.3c0,0.1-0.1,0.1-0.1,0.2c1,0.2,2,0.3,3.1,0.3
		C21.1,51.9,22.2,51.8,23.1,51.6z"/>
	<path d="M17.6,55.2c0.1,0.1,0.1,0.2,0.2,0.2c0.7,0.1,1.5,0.2,2.3,0.2c0.8,0,1.5-0.1,2.3-0.2c0.1-0.1,0.1-0.2,0.2-0.2
		c-0.8,0.1-1.6,0.2-2.4,0.2C19.2,55.4,18.3,55.4,17.6,55.2z"/>
	<path d="M18.7,50.3c0.3-0.3,0.8-0.5,1.3-0.5c0.5,0,1,0.2,1.3,0.5c0,0,0,0,0.1,0c0,0,0,0,0.1,0c0,0,0-0.1,0-0.1
		c-0.3-0.4-0.9-0.6-1.5-0.6c-0.6,0-1.1,0.2-1.5,0.6c0,0,0,0.1,0,0.1C18.6,50.3,18.6,50.3,18.7,50.3z"/>
	<path d="M23.1,54.1c0-0.1,0-0.1,0.1-0.2c-1,0.2-2,0.3-3.1,0.3s-2.2-0.1-3.1-0.3c0,0.1,0,0.1,0.1,0.2c0.9,0.2,2,0.3,3,0.3
		C21.1,54.4,22.1,54.3,23.1,54.1z"/>
	<path d="M20,58.1c4.7,0,8.5-3.8,8.5-8.5c0-4.7-3.8-8.5-8.5-8.5s-8.5,3.8-8.5,8.5C11.5,54.3,15.3,58.1,20,58.1z M17.9,49.9
		c0.8-0.5,1.2-1.4,2.2-1.4c1,0,1.3,0.8,2.2,1.4c1.6,0.6,1.9,1.6,1.9,2.8c0,2.2-1.9,4.4-4.1,4.4c-2.2,0-4.1-2.2-4.1-4.4
		C15.9,51.5,16.3,50.5,17.9,49.9z"/>
	<path d="M23.3,52.8C23.3,52.8,23.3,52.7,23.3,52.8c0-0.1,0-0.2,0-0.2c-1,0.2-2.1,0.4-3.3,0.4c-1.2,0-2.3-0.1-3.3-0.4
		c0,0.1,0,0.1,0,0.2c0,0,0,0,0,0.1c1,0.2,2.1,0.4,3.3,0.4C21.2,53.2,22.3,53,23.3,52.8z"/>
	<path d="M94.9,64.6c-0.6-3.5-5.4-4.7-8.8-5.8C84.5,60.2,82.3,61,80,61c-2.3,0-4.5-0.9-6.1-2.3c-3.4,1.1-8.3,2.3-8.8,5.8
		c-1,6.2,8.2,9.8,14.9,9.8C86.7,74.4,95.9,70.8,94.9,64.6z"/>
	<path d="M83.1,51.6c0-0.1,0-0.1-0.1-0.2c-0.9,0.2-2,0.3-3,0.3s-2.1-0.1-3-0.3c0,0.1-0.1,0.1-0.1,0.2c1,0.2,2,0.3,3.1,0.3
		S82.1,51.8,83.1,51.6z"/>
	<path d="M77.5,55.2c0.1,0.1,0.1,0.2,0.2,0.2c0.7,0.1,1.5,0.2,2.3,0.2s1.5-0.1,2.3-0.2c0.1-0.1,0.1-0.2,0.2-0.2
		c-0.8,0.1-1.6,0.2-2.4,0.2S78.3,55.4,77.5,55.2z"/>
	<path d="M78.6,50.3c0.3-0.3,0.8-0.5,1.3-0.5c0.5,0,1,0.2,1.3,0.5c0,0,0,0,0.1,0c0,0,0.1,0,0.1,0c0,0,0-0.1,0-0.1
		c-0.3-0.4-0.9-0.6-1.5-0.6s-1.1,0.2-1.5,0.6c0,0,0,0.1,0,0.1C78.5,50.3,78.6,50.3,78.6,50.3z"/>
	<path d="M83,54.1c0-0.1,0-0.1,0.1-0.2c-1,0.2-2,0.3-3.1,0.3s-2.2-0.1-3.1-0.3c0,0.1,0,0.1,0.1,0.2c0.9,0.2,2,0.3,3,0.3
		C81.1,54.4,82.1,54.3,83,54.1z"/>
	<path d="M80,58.1c4.7,0,8.5-3.8,8.5-8.5c0-4.7-3.8-8.5-8.5-8.5c-4.7,0-8.5,3.8-8.5,8.5C71.4,54.3,75.3,58.1,80,58.1z M77.8,49.9
		c0.8-0.5,1.2-1.4,2.2-1.4s1.3,0.8,2.2,1.4c1.6,0.6,1.9,1.6,1.9,2.8c0,2.2-1.9,4.4-4.1,4.4s-4.1-2.2-4.1-4.4
		C75.9,51.5,76.2,50.5,77.8,49.9z"/>
	<path d="M83.3,52.8C83.3,52.8,83.3,52.7,83.3,52.8c0-0.1,0-0.2,0-0.2c-1,0.2-2.1,0.4-3.3,0.4s-2.3-0.1-3.3-0.4c0,0.1,0,0.1,0,0.2
		c0,0,0,0,0,0.1c1,0.2,2.1,0.4,3.3,0.4C81.1,53.2,82.3,53,83.3,52.8z"/>
	<polygon points="56.6,51.3 55.3,51.3 43.4,51.3 43.4,48.3 35.8,52.8 43.4,57.2 43.4,54.2 44.7,54.2 56.6,54.2 56.6,57.2 64.2,52.8 
		56.6,48.3 	"/>
	<path d="M40.3,36.6c0.3,0,0.6-0.2,0.8-0.4c0.2-0.1,0.5-0.2,0.8-0.2c0.3,0,0.5,0.1,0.7,0.2c0-0.1,0-0.3,0-0.4c0-0.1,0-0.3,0-0.4
		c-0.2,0.1-0.5,0.2-0.7,0.2c-0.3,0-0.6-0.1-0.8-0.2c-0.2-0.3-0.4-0.4-0.8-0.4C39.8,34.8,39.8,36.6,40.3,36.6z"/>
	<path d="M43.3,29.7c0.2,0,0.5,0.2,0.7,0.4c0.2,0.2,0.3,0.4,0.4,0.7c0.2-0.2,0.4-0.4,0.6-0.6c-0.2-0.1-0.5-0.2-0.7-0.4
		c-0.2-0.2-0.3-0.5-0.4-0.7c0.1-0.3,0-0.6-0.2-0.9c-0.3-0.4-1.6,0.9-1.3,1.3C42.7,29.7,43,29.8,43.3,29.7z"/>
	<path d="M49.5,26.8c0.1,0.2,0.2,0.5,0.2,0.8c0,0.3-0.1,0.5-0.2,0.7c0.1,0,0.3,0,0.4,0s0.3,0,0.4,0c-0.1-0.2-0.2-0.5-0.2-0.7
		c0-0.3,0.1-0.6,0.2-0.8c0.3-0.2,0.4-0.4,0.4-0.8c0-0.5-1.8-0.5-1.8,0C49.1,26.3,49.3,26.6,49.5,26.8z"/>
	<path d="M56,30.1c0.2-0.2,0.5-0.3,0.7-0.4c0.3,0.1,0.6,0,0.9-0.2c0.4-0.4-0.9-1.6-1.3-1.3c-0.2,0.2-0.3,0.6-0.2,0.9
		c0,0.2-0.2,0.5-0.4,0.7c-0.2,0.2-0.4,0.3-0.7,0.4c0.2,0.2,0.4,0.4,0.6,0.6C55.6,30.5,55.8,30.3,56,30.1z"/>
	<path d="M45,41.3c-0.2-0.2-0.4-0.4-0.6-0.6c-0.1,0.2-0.2,0.5-0.4,0.7c-0.2,0.2-0.5,0.3-0.7,0.4c-0.3-0.1-0.6,0-0.9,0.2
		c-0.4,0.4,0.9,1.6,1.3,1.3c0.2-0.2,0.3-0.6,0.2-0.9c0-0.2,0.2-0.5,0.4-0.7C44.6,41.5,44.8,41.4,45,41.3z"/>
	<path d="M57.5,35.7c0,0.1,0,0.3,0,0.4c0.2-0.1,0.5-0.2,0.7-0.2c0.3,0,0.6,0.1,0.8,0.2c0.2,0.3,0.4,0.4,0.8,0.4c0.5,0,0.5-1.8,0-1.8
		c-0.3,0-0.6,0.2-0.8,0.4c-0.2,0.1-0.5,0.2-0.8,0.2c-0.3,0-0.5-0.1-0.7-0.2C57.5,35.5,57.5,35.6,57.5,35.7z"/>
	<path d="M49.1,45.5c0,0.5,1.8,0.5,1.8,0c0-0.3-0.2-0.6-0.4-0.8c-0.1-0.2-0.2-0.5-0.2-0.8c0-0.3,0.1-0.5,0.2-0.7c-0.1,0-0.3,0-0.4,0
		s-0.3,0-0.4,0c0.1,0.2,0.2,0.5,0.2,0.7c0,0.3-0.1,0.6-0.2,0.8C49.3,44.9,49.1,45.2,49.1,45.5z"/>
	<path d="M56.3,43.3c0.4,0.4,1.6-0.9,1.3-1.3c-0.2-0.2-0.6-0.3-0.9-0.2c-0.2,0-0.5-0.2-0.7-0.4c-0.2-0.2-0.3-0.4-0.4-0.7
		c-0.2,0.2-0.4,0.4-0.6,0.6c0.2,0.1,0.5,0.2,0.7,0.4c0.2,0.2,0.3,0.5,0.4,0.7C55.9,42.7,56,43,56.3,43.3z"/>
	<path d="M50,40.4c2.6,0,4.7-2.1,4.7-4.7c0-2.6-2.1-4.7-4.7-4.7c-2.6,0-4.7,2.1-4.7,4.7C45.3,38.3,47.4,40.4,50,40.4z M52.1,35.2
		c-0.2,0-0.4-0.2-0.4-0.4c0-0.2,0.2-0.4,0.4-0.4c0.2,0,0.4,0.2,0.4,0.4C52.5,35,52.3,35.2,52.1,35.2z M51.7,32.4
		c0.4,0,0.8,0.4,0.8,0.8S52.2,34,51.7,34c-0.4,0-0.8-0.4-0.8-0.8S51.3,32.4,51.7,32.4z M49.7,33.1c0.3,0,0.6,0.3,0.6,0.6
		s-0.3,0.6-0.6,0.6s-0.6-0.3-0.6-0.6S49.4,33.1,49.7,33.1z"/>
	<path d="M44.7,31.6c-0.8,1-1.3,2.1-1.4,3.4c0,0,0,0,0,0c0,0.2,0,0.5,0,0.7c0,0.3,0,0.5,0,0.7c0,0,0,0,0,0c0.1,1.3,0.6,2.4,1.4,3.4
		c0,0,0,0,0,0c0.3,0.4,0.7,0.7,1.1,1.1c0,0,0,0,0,0c1,0.8,2.1,1.3,3.4,1.4c0,0,0,0,0,0c0.2,0,0.5,0,0.7,0c0.3,0,0.5,0,0.7,0
		c0,0,0,0,0,0c1.3-0.1,2.4-0.6,3.4-1.4c0,0,0,0,0,0c0.4-0.3,0.7-0.7,1.1-1.1c0,0,0,0,0,0c0.8-1,1.3-2.1,1.4-3.4c0,0,0,0,0,0
		c0-0.2,0-0.5,0-0.7c0-0.3,0-0.5,0-0.7c0,0,0,0,0,0c-0.1-1.3-0.6-2.4-1.4-3.4c0,0,0,0,0,0c-0.3-0.4-0.7-0.7-1.1-1.1c0,0,0,0,0,0
		c-1-0.8-2.1-1.3-3.4-1.4c0,0,0,0,0,0c-0.2,0-0.5,0-0.7,0c-0.3,0-0.5,0-0.7,0c0,0,0,0,0,0c-1.3,0.1-2.4,0.6-3.4,1.4c0,0,0,0,0,0
		C45.4,30.8,45.1,31.2,44.7,31.6C44.7,31.6,44.7,31.6,44.7,31.6z M50,30.4c2.9,0,5.3,2.4,5.3,5.3s-2.4,5.3-5.3,5.3
		c-2.9,0-5.3-2.4-5.3-5.3C44.7,32.8,47.1,30.4,50,30.4z"/>
</g>
</svg>
