<?xml version="1.0" encoding="UTF-8"?>
<!DOCTYPE svg PUBLIC "-//W3C//DTD SVG 1.1//EN" "http://www.w3.org/Graphics/SVG/1.1/DTD/svg11.dtd">
<!-- Creator: CorelDRAW X5 -->
<svg xmlns="http://www.w3.org/2000/svg" xml:space="preserve" width="130mm" height="130mm" style="shape-rendering:geometricPrecision; text-rendering:geometricPrecision; image-rendering:optimizeQuality; fill-rule:evenodd; clip-rule:evenodd"
viewBox="0 0 13000 13000"
 xmlns:xlink="http://www.w3.org/1999/xlink">
 <defs>
  <style type="text/css">
   <![CDATA[
    .fil0 {fill:black}
    .fil1 {fill:red}
    .fil2 {fill:white}
   ]]>
  </style>
 </defs>
 <g id="Layer_x0020_1">
  <metadata id="CorelCorpID_0Corel-Layer"/>
  <path class="fil0" d="M7973 7348c0,232 -190,423 -423,423l-610 0c-35,-117 -125,-195 -227,-258l560 0c91,0 165,-74 165,-165l0 -1695c0,-91 -74,-165 -165,-165l-521 0 2 -65c147,-56 303,-110 437,-193l359 0c233,0 423,190 423,423l0 1696zm-2231 -3274c-7,27 -45,66 -99,97 -31,18 -61,30 -86,36 7,-27 45,-66 99,-97 31,-18 61,-30 86,-36zm-30 221c-90,71 -282,175 -415,191 -107,27 -116,171 -238,186 65,-53 90,-135 148,-186 -34,2 -68,5 -97,7 -61,5 -124,14 -187,25 98,-58 309,-81 389,-78 59,-12 122,-31 180,-57 -83,14 -168,11 -234,-18 -16,-43 184,-225 382,-349 96,-61 280,-60 386,-116 344,-180 586,-317 879,-263 374,70 742,374 749,725 8,351 -154,617 -452,818 -117,79 -284,143 -447,205l8 -234c41,-51 68,-110 75,-173 55,-30 105,-62 148,-98 171,-143 257,-226 254,-491 -3,-265 -371,-407 -677,-392 -143,7 -294,55 -425,138 -122,78 -231,180 -352,236 -81,37 -181,52 -273,49 80,-29 150,-74 197,-126zm-64 -248c163,-90 451,-101 416,12 -27,86 -239,296 -443,335 65,-57 129,-97 135,-149 -134,49 -328,164 -448,86 49,-65 178,-194 340,-284zm853 197c148,0 273,213 302,495l-603 0c29,-282 153,-495 302,-495zm229 894l-30 889c-54,-29 -110,-54 -162,-78 -104,-47 -197,-90 -242,-141l-22 -671c-36,-41 -62,-91 -73,-147l603 0c-11,56 -37,106 -73,147zm-45 1359l-33 980c-31,-17 -62,-32 -92,-48 -93,-47 -177,-90 -215,-143l-34 -1006c32,15 63,29 94,42 136,60 267,110 279,174zm-45 1345l-34 1012 -104 235 -104 -235 -40 -1194c10,5 19,9 29,14 110,51 228,97 253,168zm168 -3052l0 151 -611 0 0 -151 611 0zm-555 4105c-38,-176 -180,-433 -93,-592 39,-72 106,-115 178,-150l7 214c-29,22 -55,48 -74,78 -83,127 -12,300 -18,450zm421 -984c2,-10 4,-21 5,-32 19,-266 -667,-219 -665,-680 1,-194 133,-289 282,-359l11 322c-11,21 -17,43 -16,69 6,235 625,248 633,642 4,195 -117,278 -259,342l10 -304zm46 -1405c3,-103 -304,-216 -405,-263 -207,-97 -420,-230 -424,-499 -3,-230 151,-372 351,-484l13 402c-16,26 -25,54 -24,85 4,95 114,154 251,217 228,105 530,223 533,543 2,230 -146,344 -309,426l13 -426zm-394 1266l-1297 0 0 -2541 1194 0c-117,67 -227,149 -296,258l-370 0 0 2025 562 0c59,51 130,90 202,124l4 134zm-2163 -2541l528 0 0 2541 -528 0 0 -2541zm4149 0l528 0 0 2541 -528 0 0 -2541z"/>
  <path class="fil1" d="M6500 3181c1828,0 3319,1491 3319,3319 0,1828 -1491,3319 -3319,3319 -1828,0 -3319,-1491 -3319,-3319 0,-1828 1491,-3319 3319,-3319zm0 -1131c2451,0 4451,1999 4451,4451 0,2451 -1999,4451 -4451,4451 -2451,0 -4451,-1999 -4451,-4451 0,-2451 1999,-4451 4451,-4451zm0 788c2017,0 3663,1645 3663,3663 0,2017 -1645,3663 -3663,3663 -2017,0 -3663,-1645 -3663,-3663 0,-2017 1645,-3663 3663,-3663zm0 505c1739,0 3158,1419 3158,3158 0,1739 -1419,3158 -3158,3158 -1739,0 -3158,-1419 -3158,-3158 0,-1739 1419,-3158 3158,-3158z"/>
  <path class="fil2" d="M6500 1928c2518,0 4572,2054 4572,4572 0,2518 -2054,4572 -4572,4572 -2518,0 -4572,-2054 -4572,-4572 0,-2518 2054,-4572 4572,-4572zm-758 2146c-7,27 -45,66 -99,97 -31,18 -61,30 -86,36 7,-27 45,-66 99,-97 31,-18 61,-30 86,-36zm2231 3274c0,232 -190,423 -423,423l-610 0c-35,-117 -125,-195 -227,-258l560 0c91,0 165,-74 165,-165l0 -1695c0,-91 -74,-165 -165,-165l-521 0 2 -65c147,-56 303,-110 437,-193l359 0c233,0 423,190 423,423l0 1696zm-2261 -3054c-90,71 -282,175 -415,191 -107,27 -116,171 -238,186 65,-53 90,-135 148,-186 -34,2 -68,5 -97,7 -61,5 -124,14 -187,25 98,-58 309,-81 389,-78 59,-12 122,-31 180,-57 -83,14 -168,11 -234,-18 -16,-43 184,-225 382,-349 96,-61 280,-60 386,-116 344,-180 586,-317 879,-263 374,70 742,374 749,725 8,351 -154,617 -452,818 -117,79 -284,143 -447,205l8 -234c41,-51 68,-110 75,-173 55,-30 105,-62 148,-98 171,-143 257,-226 254,-491 -3,-265 -371,-407 -677,-392 -143,7 -294,55 -425,138 -122,78 -231,180 -352,236 -81,37 -181,52 -273,49 80,-29 150,-74 197,-126zm-64 -248c163,-90 451,-101 416,12 -27,86 -239,296 -443,335 65,-57 129,-97 135,-149 -134,49 -328,164 -448,86 49,-65 178,-194 340,-284zm853 197c148,0 273,213 302,495l-603 0c29,-282 153,-495 302,-495zm229 894l-30 889c-54,-29 -110,-54 -162,-78 -104,-47 -197,-90 -242,-141l-22 -671c-36,-41 -62,-91 -73,-147l603 0c-11,56 -37,106 -73,147zm-45 1359l-33 980c-31,-17 -62,-32 -92,-48 -93,-47 -177,-90 -215,-143l-34 -1006c32,15 63,29 94,42 136,60 267,110 279,174zm-45 1345l-34 1012 -104 235 -104 -235 -40 -1194c10,5 19,9 29,14 110,51 228,97 253,168zm168 -3052l0 151 -611 0 0 -151 611 0zm-555 4105c-38,-176 -180,-433 -93,-592 39,-72 106,-115 178,-150l7 214c-29,22 -55,48 -74,78 -83,127 -12,300 -18,450zm421 -984c2,-10 4,-21 5,-32 19,-266 -667,-219 -665,-680 1,-194 133,-289 282,-359l11 322c-11,21 -17,43 -16,69 6,235 625,248 633,642 4,195 -117,278 -259,342l10 -304zm46 -1405c3,-103 -304,-216 -405,-263 -207,-97 -420,-230 -424,-499 -3,-230 151,-372 351,-484l13 402c-16,26 -25,54 -24,85 4,95 114,154 251,217 228,105 530,223 533,543 2,230 -146,344 -309,426l13 -426zm-394 1266l-1297 0 0 -2541 1194 0c-117,67 -227,149 -296,258l-370 0 0 2025 562 0c59,51 130,90 202,124l4 134zm-2163 -2541l528 0 0 2541 -528 0 0 -2541zm4149 0l528 0 0 2541 -528 0 0 -2541zm-1811 -2049c1828,0 3319,1491 3319,3319 0,1828 -1491,3319 -3319,3319 -1828,0 -3319,-1491 -3319,-3319 0,-1828 1491,-3319 3319,-3319zm0 -1131c2451,0 4451,1999 4451,4451 0,2451 -1999,4451 -4451,4451 -2451,0 -4451,-1999 -4451,-4451 0,-2451 1999,-4451 4451,-4451zm0 788c2017,0 3663,1645 3663,3663 0,2017 -1645,3663 -3663,3663 -2017,0 -3663,-1645 -3663,-3663 0,-2017 1645,-3663 3663,-3663zm0 505c1739,0 3158,1419 3158,3158 0,1739 -1419,3158 -3158,3158 -1739,0 -3158,-1419 -3158,-3158 0,-1739 1419,-3158 3158,-3158z"/>
 </g>
</svg>
