<?xml version="1.0" encoding="utf-8"?>
<!-- Generator: Adobe Illustrator 24.3.0, SVG Export Plug-In . SVG Version: 6.00 Build 0)  -->
<svg version="1.1" id="Layer_1" xmlns="http://www.w3.org/2000/svg" xmlns:xlink="http://www.w3.org/1999/xlink" x="0px" y="0px"
	 viewBox="0 0 100 125" style="enable-background:new 0 0 100 125;" xml:space="preserve">
<g>
	<path d="M75.5,40.6c3,0.5,5.3,2,6.7,4.3c1.8,2.8,2,6.8,0.8,11.2c-0.2,0.6-0.4,1.2-0.6,1.8c-2.1,5.1-6.7,8.2-11.4,8.2
		c-0.9,0-1.9-0.1-2.8-0.4c-1.1-0.3-1.8-1.5-1.5-2.6c0.3-1.1,1.5-1.8,2.6-1.5c3.4,1,7.3-1.3,9-5.4c0.2-0.4,0.3-0.9,0.5-1.3
		c0.9-3.2,0.8-6-0.3-7.7c-0.8-1.2-2-2-3.8-2.3c-2.6-0.5-5.7,0.5-6.6,3.8c-0.3,1.1-1.5,1.8-2.6,1.5c-1.1-0.3-1.8-1.5-1.5-2.6
		c0.3-1.2,0.9-2.2,1.6-3.2L42.9,56.4l3.4,16.3h37C91.4,65.5,98,51.9,98,40.6C98,36.3,97.3,32,96,28L72.6,40.5
		C73.6,40.4,74.5,40.4,75.5,40.6z"/>
	<circle cx="29.8" cy="59.1" r="2.9"/>
	<circle cx="20.6" cy="56.1" r="2.9"/>
	<circle cx="36.3" cy="66" r="2.9"/>
	<circle cx="37.7" cy="75" r="2.9"/>
	<path d="M47.2,77L31.4,94.8c-4.1-0.5-18-3.4-22.4-18C4,60.8,13,49.7,16,46.5L38.2,54l56.3-30.1C88.6,10.5,76,0.3,60.5,0.1
		C43.6,0,26.4,11,23,28.5c-0.7,3.1-1.5,11.2-1.5,11.2l-2.1,2.9l-4.6-1.5l-1,0.9c-0.7,0.6-16,14.4-9.4,36.1
		C10.5,98.1,32,99.6,32.2,99.6l1.1,0.1l7.8-8.8v9.1h40.6L82,76.9L47.2,77L47.2,77z M35.2,35.6c2.3,0,4.1,1.8,4.1,4.1
		c0,2.3-1.8,4.1-4.1,4.1c-2.3,0-4.1-1.8-4.1-4.1C31.1,37.5,32.9,35.6,35.2,35.6z"/>
</g>
</svg>
