<svg id="Layer_1" data-name="Layer 1" xmlns="http://www.w3.org/2000/svg" viewBox="0 0 622.04 531.27">
  <defs>
    <style>
      .cls-1 {
        fill: #d1d3d4;
      }
    </style>
  </defs>
  <path class="cls-1" d="M257.33,535.13a4.93,4.93,0,0,1,1.11-2.48,154.36,154.36,0,0,0,7.92-15.34A167.63,167.63,0,0,0,273.83,497c1.74-5.68,2.35-11.52,3.66-17.23,1.59-6.9,1.34-13.8,1.46-20.91a46,46,0,0,0-9.59,3.87,197.63,197.63,0,0,0-20.42,11.77q-9.57,6.26-18.59,13.19c-3.94,3-7.46,6.43-11,9.8-5,4.66-9.93,9.33-15.15,13.72-8.83,7.44-19.24,11.84-30.5,15.07-8.35,2.38-14.94-.12-21.53-4.11a35.11,35.11,0,0,1-11.21-11.05,18.6,18.6,0,0,1-2.17-3.47c-8,4.27-15.89,8.65-23.78,13a103.6,103.6,0,0,1-36.31,11.83,96.68,96.68,0,0,1-24.51.33,85,85,0,0,1-20.51-4.9,36.51,36.51,0,0,1-15.18-10.53,47.88,47.88,0,0,1-7.33-12.2c-2.93-6.78-3.37-13.8-3.34-20.94,0-.54-.4-1.34.54-1.58,1.12-.28,1,.77,1.29,1.28,2.82,5.17,6.15,10,11,13.62,5.77,4.35,12.45,7,19.53,8.71,9.33,2.29,18.89,3.27,28.43,4.36,4.64.53,9.23-.25,13.81-.75a109.73,109.73,0,0,0,20.16-4,187.8,187.8,0,0,0,22.12-8.41c6.63-2.95,13.06-6.25,19.54-9.49,4.12-2.06,8.1-4.37,12.21-6.48A206.1,206.1,0,0,1,181,471q10-3.57,20.13-6.7c8.19-2.53,16.44-4.86,24.68-7.24s16.38-4.67,24.57-7l12.06-3.47a2.4,2.4,0,0,0-2.23-.89q-29.87-1-59.73-2c-10.8-.36-21.61-.48-32.4-1-7.85-.4-15.67-1.36-23.5-2.06-6-.53-11.92-1.08-17.88-1.56a297.44,297.44,0,0,0-34.55-1.12c-8.07.28-16.16-.07-24.21.75a167.69,167.69,0,0,0-29.74,5.5,134.7,134.7,0,0,0-22.69,8.71c.74-3.05,2.48-5.51,3.67-8.19,2-4.4,4-8.79,6.12-13.1.35-.69-.21-.56-.28-.67-3-4.53-6.11-9-9-13.55-1.77-2.84-3.42-5.75-5-8.72a133.83,133.83,0,0,1-7.42-17.3C.58,382.93-.13,374.31,0,365.54a49.33,49.33,0,0,1,2.45-14.91,64.43,64.43,0,0,1,7.59-15.19A60.25,60.25,0,0,1,17,326.9a95.61,95.61,0,0,1,12.17-10.69c2.88-2.09,5.82-4.07,8.79-6,4.11-2.71,8.54-4.88,12.86-7.23,3.41-1.87,6.86-3.67,10.32-5.46q7.85-4.07,15.72-8.07c5.87-3,11.76-6,17.62-9,5.56-2.87,11.12-5.75,16.63-8.7,4.4-2.36,8.73-4.82,13.08-7.26,6.73-3.78,13.48-7.53,20.17-11.37,4.1-2.36,8.12-4.82,12.14-7.3,4.76-2.94,9.52-5.91,14.22-8.95q5.92-3.84,11.71-7.89c4.74-3.31,9.45-6.66,14.08-10.11,3.26-2.43,6.37-5,9.54-7.58,1.13-.9,2.31-1.76,3.35-2.75.65-.63,1.2-.1,1.53.1.51.31.29.81-.23,1.18a2,2,0,0,0-.57.94c-1.39,4-3.65,7.64-5.82,11.27a122.15,122.15,0,0,1-8.82,12.87c-1.94,2.46-3.85,5-5.93,7.3a120.37,120.37,0,0,1-12.37,12.58c-1.5,1.25-2.86,2.67-4.32,4a100.28,100.28,0,0,1-13,10,196.52,196.52,0,0,0-16.68,12,114.09,114.09,0,0,0-9,7.83c-3,3-6.11,5.8-9.16,8.7-1.46,1.39-2.74,2.95-4,4.45a171.1,171.1,0,0,0-13.69,17.19c-2.56,3.82-5.1,7.64-7.42,11.61a146.92,146.92,0,0,0-7.54,14.86,118.12,118.12,0,0,0-6.5,18.23c-1.68,6.49-3.41,13-3.3,19.74a32.76,32.76,0,0,0,1.3,9.62,35.84,35.84,0,0,0,7.56,13.5c6.44,6.92,14.46,11.7,23.4,15.24a143.16,143.16,0,0,0,34.36,8.41A245.15,245.15,0,0,0,193,431.64a234.41,234.41,0,0,0,36.9-4.52c7.72-1.62,15.34-3.6,22.39-7.11A40.12,40.12,0,0,0,261,413.9c4.05-3.6,7-8,9.72-12.5,1.09-1.78,1.56-3.81,2.4-5.69a40,40,0,0,0,3.28-17.39,23.12,23.12,0,0,0-2.4-10.59c-1.07-2-1.27-4.53-2.08-6.76a31.83,31.83,0,0,0-8.05-12.84,20.45,20.45,0,0,0-11.87-5,59.9,59.9,0,0,0-8.58-.36,20.55,20.55,0,0,0-17.17,9.19c-2.57,3.65-2.87,7.71-3.5,11.84-1.08,0-1.71-.75-2.44-1.42a16.08,16.08,0,0,1-5.13-11.08A51.36,51.36,0,0,1,218,331.36a72.64,72.64,0,0,1,2.87-8.34c1.88-4,2.93-8.32,5.21-12.17a18,18,0,0,0,1.28-3.32c1.37-3.92,3.41-7.56,5.11-11.33q3.63-8,7.49-15.93c2.51-5.16,4.83-10.4,7.32-15.56,2.7-5.59,5-11.31,7.71-16.9,1.47-3.09,2.52-6.32,3.92-9.43,2.43-5.42,4.63-10.92,6.69-16.48,1.55-4.17,2.81-8.44,4.36-12.6,1.62-4.33,2.34-8.87,3.93-13.17s2.08-8.91,3.52-13.24c1.88-5.63,2.34-11.53,3.93-17.18,1.67-5.89,2.09-12,3.54-17.85,1.92-7.82,2.31-15.85,3.92-23.68,1.7-8.25,2-16.65,3.53-24.89,1.79-9.69,2-19.56,3.91-29.19,1.66-8.26,1.13-16.59,1.77-24.87.8-10.45,1.15-20.93,1.54-31.4.11-2.93.57-5.8.87-8.7.05-.44-.24-1.07.62-1.11s.85.52.88,1.12q.39,7.2.8,14.39c.29,4.93.38,9.87.94,14.76,1.22,10.46,1.49,21,2.2,31.46.29,4.35,1.51,8.55,2.12,12.84,1,7.16,1.67,14.38,3.07,21.47s1.85,14.18,3.51,21.12c1.44,6,1.86,12.15,3.43,18.1,1.64,6.25,2.19,12.72,4,18.91,1.34,4.6,1.86,9.37,3.38,13.9,1.67,4.95,2.28,10.17,4.05,15.07,1.35,3.74,1.91,7.68,3.44,11.33,1.62,3.86,2.41,7.95,3.89,11.84,2.44,6.4,4.78,12.85,7.5,19.14,2.39,5.54,4.86,11.05,7.36,16.54,2.37,5.2,4.83,10.36,7.34,15.49s4.88,10,7.36,14.94,5,9.94,7.44,14.91,4.93,10.09,7.35,15.16c2.71,5.69,5.16,11.46,7.55,17.28,1.44,3.52,2.26,7.18,3.62,10.68,1.31,3.35,1.61,6.83,2.1,10.3a20.93,20.93,0,0,1-1,10.52c-1.26,3.25-3.21,6.27-6.83,8a27.57,27.57,0,0,0-3.42-11.61,17.25,17.25,0,0,0-15.27-8.41,41.83,41.83,0,0,0-16.22,4.06,34.85,34.85,0,0,0-9.88,7,42,42,0,0,0-11,20.81c-1.63,7.33-.52,14.57,2.19,21.47a37.59,37.59,0,0,0,6.28,10.94c5.59,6.54,12.17,11.51,20.79,14.07a227.14,227.14,0,0,0,35.95,7.15,326.13,326.13,0,0,0,46.55,2.68,231.12,231.12,0,0,0,33.24-2.58c9.47-1.52,18.78-3.56,27.68-7.14,6.88-2.77,13.35-6.07,18.82-11.06a44.64,44.64,0,0,0,7.09-8.2c2.09-3.14,3.07-6.58,4.2-10a32.61,32.61,0,0,0,.57-16.74c-1-4.89-1.62-9.92-3.45-14.61-1.36-3.46-2.1-7.11-3.66-10.49-2.47-5.32-4.85-10.69-7.6-15.88a97.44,97.44,0,0,0-7-11.15c-2.78-3.85-5.51-7.75-8.61-11.41-2-2.3-3.85-4.64-5.85-6.89a132.53,132.53,0,0,0-12.46-12.51c-1.48-1.26-2.85-2.66-4.29-4a182.26,182.26,0,0,0-20.72-16.06c-5.42-3.65-11.08-7-16.21-11-2.93-2.31-5.78-4.72-8.68-7.07-4.76-3.85-9.09-8.14-13.53-12.32-2.11-2-3.85-4.33-5.86-6.42a89.32,89.32,0,0,1-8.94-11.21,51.87,51.87,0,0,1-5.94-10.32c-1.07-2.73-2.78-5.24-3.06-8.52,2.79,2.15,5.39,4.22,8.06,6.2,5.39,4,10.84,7.95,16.45,11.68,4,2.65,7.95,5.31,12,7.9,5.85,3.75,11.75,7.41,17.8,10.85,4.55,2.59,8.95,5.41,13.55,7.92,5.37,2.92,10.63,6,16.13,8.74,3.16,1.56,6.18,3.38,9.31,5q8.51,4.41,17.06,8.73c5.42,2.74,10.84,5.49,16.3,8.15,8.16,4,16.37,7.88,24.52,11.87,6.78,3.32,13.47,6.79,20.26,10.09a170.13,170.13,0,0,1,20.1,11.47,79.9,79.9,0,0,1,8.13,6.27,77.87,77.87,0,0,1,13.34,14.35,67,67,0,0,1,6.94,12.64c5.37,13,4.68,26.22,1.24,39.39a85.24,85.24,0,0,1-7.15,17.7c-2.28,4.33-4.82,8.54-7.47,12.67-2.28,3.56-4.83,7-7.39,10.35-2.7,3.58-2.74,3.52-.22,7.33a15.84,15.84,0,0,1,.87,2.07c1.82,3.81,3.64,7.61,5.5,11.41.61,1.24,1.69,2.27,1.88,3.84-2-.19-3.55-1.41-5.23-2.14a137.21,137.21,0,0,0-21-7A184.77,184.77,0,0,0,554.63,439c-9.4-1.12-18.85-.71-28.27-1.21-12.91-.68-25.78,0-38.63,1-10.57.75-21.15,1.62-31.65,3-9.73,1.31-19.49.77-29.22,1.35-10.46.63-20.94,1-31.41,1.46q-22.81,1-45.64,2c-2.64.11-5.28.3-8.26.48a27.31,27.31,0,0,0,6.44,2.07q12.21,3.36,24.52,6.41c10.66,2.64,21.26,5.45,31.77,8.58,7,2.1,14,4.41,20.92,6.88,9.27,3.31,18.36,7,27.33,11,5.86,2.6,11.63,5.39,17.55,7.82,11.44,4.7,22.65,9.89,34.58,13.46a209.93,209.93,0,0,0,29.59,6.21,86.47,86.47,0,0,0,22.72.79c9.29-1.07,18.49-2.5,27.36-5.53a58.83,58.83,0,0,0,16.78-8.6,31.8,31.8,0,0,0,9.7-11.11c.11-.22.15-.52.33-.66.72-.57.87-2.08,2.06-1.72s.45,1.54.48,2.34a47,47,0,0,1-1.57,14.65,44.65,44.65,0,0,1-7.37,15.15c-6.66,8.55-15.9,13.21-26.54,15.8a84.79,84.79,0,0,1-24,2.16A141,141,0,0,1,525.11,528a191.15,191.15,0,0,1-24.27-7.7c-3-1.22-5.8-2.93-8.7-4.41-5.4-2.77-10.82-5.51-16.21-8.3-.52-.27-.58-.26-.91.25a50,50,0,0,1-6.85,8.79c-6.48,6.28-14.19,10.39-23.47,11-4.13.27-8.18-1.18-12-2.67a62.41,62.41,0,0,1-16.83-10.11c-5.17-4.2-10.05-8.68-15-13.08-4.62-4.1-9.16-8.35-14.35-11.8-7.93-5.28-15.86-10.58-24.12-15.39a139.29,139.29,0,0,0-22.84-10.94,125.26,125.26,0,0,0-13.19-3.85c-1.14-.27-1.49,0-1.57,1.05a85.22,85.22,0,0,0,0,10.48,48.41,48.41,0,0,0,.65,6.7c1.29,6.51,1.92,13.18,4.06,19.5,1,2.91,1.75,5.91,2.92,8.78a157.37,157.37,0,0,0,7.87,17.42c2.14,3.8,4,7.79,7,11.53a36.41,36.41,0,0,1-7.18-2,217.42,217.42,0,0,0-27.92-7.08c-5.82-1-11.69-.68-17.53-.3-7.88.51-15.46,2.51-23,4.71C266.9,532,262.22,533.56,257.33,535.13Zm-117.66-28,2.91,1a52.71,52.71,0,0,0,25.32,2.32c12.43-2,22.85-8.27,33.2-14.62,3.21-2,6.29-4.12,9.47-6.13,4.18-2.65,8.41-5.24,12.61-7.88,3.34-2.09,6.63-4.27,10-6.32,5.4-3.27,10.84-6.47,16.28-9.67,4.57-2.68,9.22-5.24,13.71-8a45.14,45.14,0,0,0,6.82-4.45,9.48,9.48,0,0,0-1.45,0,211.58,211.58,0,0,0-32.3,9.31c-9.56,3.45-19,7.31-28.28,11.34q-12.45,5.38-24.7,11.19c-5.38,2.53-10.7,5.2-16,7.84-4.52,2.23-9.06,4.45-13.55,6.75C149,502.14,144.41,504.61,139.67,507.1Zm334.71-.05c-.94-.53-1.69-1-2.5-1.4-8.06-3.79-16.05-7.68-24.15-11.38q-13-5.92-26-11.63-21.27-9.27-43.11-17.21A322.82,322.82,0,0,0,341,454.2c-1.89-.43-3.83-.63-5.74-.94a59.4,59.4,0,0,0,7.35,4.14c8.11,4,16.47,7.43,24.65,11.23q9.57,4.44,18.78,9.56c7.65,4.23,15.14,8.73,22.38,13.61S423,501.61,431,505.36a54.73,54.73,0,0,0,18.33,5.24A56.6,56.6,0,0,0,474.38,507.05Z" transform="translate(0 -4.02)"/>
</svg>
