<?xml version="1.0" encoding="utf-8"?>
<!-- Generator: Adobe Illustrator 24.3.0, SVG Export Plug-In . SVG Version: 6.00 Build 0)  -->
<svg version="1.1" id="Layer_1" xmlns="http://www.w3.org/2000/svg" xmlns:xlink="http://www.w3.org/1999/xlink" x="0px" y="0px"
	 viewBox="0 0 128 160" style="enable-background:new 0 0 128 160;" xml:space="preserve">
<path d="M127.3,109.2c-0.7-1-1.6-1.8-2.7-2.4c0.3-0.4,0.5-0.9,0.7-1.4c1.2-3.9-1.8-5.8-4.1-7.3l-0.5-0.3c-2.7-1.4-5.6-2.7-8.5-3.8
	c0.8-0.8,1.3-1.9,1.5-3c0.1-0.9,0-1.7-0.3-2.6c1-0.4,1.9-1.1,2.6-2c1-1.4,1.5-3.1,1.2-4.8c-0.2-1.3-0.9-2.4-1.9-3.2
	c-1-0.7-2.2-1.1-3.4-1.3c0.1-0.5,0.2-1,0.1-1.5c-0.3-4-3.8-4.8-6.5-5.3l-0.6-0.1c-2-0.4-12.4-0.5-15.8-0.4l0.7-0.7
	C93,66,94.3,62,93.3,58.5c-0.4-1.9-1.7-3.5-3.6-4.1l0,0c-3.3-0.8-6.3,2.2-8.3,4.3c-0.4,0.4-0.9,0.9-1.1,1l0,0
	c-0.4,0.3-1.6,1-3.8,2.5c-3.7,2.5-9.2,6.1-12.7,8.3c-3,0-6.2-0.1-8.1-0.1l-1-0.2c3.2-2.7,7.9-7.2,10.2-11.6c2-3.9,2-8.1,0-11.2
	c-1-1.7-2.7-2.8-4.7-2.8c-3.4,0.2-5.4,4.1-6.6,6.6c-0.2,0.5-0.5,1.1-0.7,1.3c-0.5,0.3-2.2,1.3-3.6,2.1c-4.6,2.6-11.5,6.5-14.5,9.9
	c-0.9,1.1-4.4,4.9-7.5,8.2c-2.5,2.7-4.7,5.1-5.1,5.6s-1.5,1.5-2.5,2.6c-1.2,1.2-2.5,2.5-3.2,3.4c-1.3,0.8-8.6,2.4-14.7,3.4
	C0.6,88-0.2,89,0,90.1c0.2,1.1,1.2,1.8,2.3,1.6c10-1.7,15.8-3.2,17-4.6c0.7-0.8,2-2.2,3.2-3.3s2.1-2.2,2.6-2.8s2.7-3,5.1-5.6
	c3.1-3.4,6.6-7.2,7.6-8.3c2.5-2.8,9.3-6.7,13.4-9c3.1-1.8,4.1-2.3,4.6-2.9c0.5-0.7,0.9-1.4,1.3-2.2c0.7-1.3,2.2-4.3,3.3-4.4
	c0.6,0.3,1.1,0.8,1.4,1.4c0.4,0.9,1.3,3.3-0.5,6.7c-2.5,4.9-9.3,10.5-11.5,12.2c-3.6-0.8-5.9-0.6-7,0.5c-0.8,0.8-0.8,2.1,0,2.8
	c0.7,0.7,1.7,0.8,2.5,0.3c0.3-0.1,1.5-0.2,4.5,0.6l5.1,1.3c0.1,0,0.3,0.1,0.5,0.1c1.3,0,12.6,0.2,14.6,0.1c1.1-0.1,6.2-0.2,10.7-0.3
	l3.4-0.1h0.2h0.3c2-0.1,3.5-0.1,3.9-0.1c1.7-0.1,14.2,0,15.7,0.3l0.6,0.1c2.8,0.6,3.2,0.8,3.3,1.6c0,0.5-0.2,1.1-0.7,1.4L67,82
	c-1.1,0.1-1.9,1-1.9,2.1c0.1,1.1,1,1.9,2.1,1.9h0.2l40.8-4.8h0.1c1-0.2,3.6-0.3,4.6,0.5c0.2,0.1,0.3,0.3,0.3,0.5
	c0.1,0.6,0,1.2-0.3,1.7c-0.8,0.8-1.8,1.2-2.9,1.3h-0.2l-41.4,7.3c-1.1,0.1-1.9,1.1-1.8,2.2s1.1,1.9,2.2,1.8c0.1,0,0.2,0,0.3,0
	l40.3-7.1c0.2,0.4,0.3,0.8,0.3,1.2c-0.1,0.3-1.1,1.7-4.3,2.8c-3.5,1.2-10,2.7-10.3,2.8l0,0l-29.8,6.4c-1.1,0.2-1.8,1.3-1.6,2.3
	c0.2,1.1,1.3,1.8,2.3,1.6c0,0,0.1,0,0.1,0l29.5-6.4c0.3,0,0.6,0.3,0.6,0.6c0.2,0.8-1.2,1.7-2.7,2.1c-0.8,0.2-2.2,0.8-3.9,1.4
	c-1.6,0.6-3.7,1.4-5.7,2.1c-0.1,0-0.3,0.1-0.4,0.1c-1.9,0.7-3.8,1.3-5.8,1.7c-2.3,0.2-5.8,1.5-9.8,3c-2.1,0.8-4.2,1.6-6.2,2.2
	c-3.1,0.9-6.2,1.6-9.3,2.1h-0.2c-6.2,1.1-13,1.8-16.4,1.5c-6.3-0.6-9.9,0-19.3,3C6.3,123.3,1.8,124,1.7,124c-1.1,0.1-1.9,1-1.9,2.1
	s1,1.9,2.1,1.9h0.3c0.2,0,4.8-0.7,15.5-4.1c9.4-3,12.3-3.3,17.7-2.8c3.7,0.3,10.6-0.4,16.9-1.5c3.9,1.6,7.9,2.8,12,3.6
	c1.9,0.4,3.7,0.8,5.5,1.3c6.9,1.8,27.8,3.5,28,3.5c0.2,0,0.7,0,1,0c3.7,0,6.2-1.7,6.6-4.5c0-0.2,0-0.5,0-0.7
	c2.2,0.3,4.9,0.6,6.9,0.7c4.4,0.2,7.7-1,8.8-3.2c0.4-0.8,0.6-1.6,0.6-2.5c1.1,0,2.2-0.3,3.2-0.9c1.5-0.9,2.5-2.3,2.9-4
	C128.1,111.6,127.9,110.3,127.3,109.2z M80.6,70.1c-3.5,0.1-7.1,0.2-9.2,0.3c2.6-1.7,5.3-3.5,7.4-4.9c1.8-1.2,3.3-2.2,3.7-2.4l0,0
	c0.7-0.5,1.3-1,1.9-1.7c1-1,3.4-3.4,4.5-3.2c0.5,0.5,0.8,1.1,0.8,1.8c0.2,1,0.2,3.5-2.5,6.2c-1.9,1.9-3,3-3.6,3.6l-0.1,0.1
	L80.6,70.1z M106.7,97.2c0.5-0.2,1-0.4,1.5-0.6c2.4,0.9,9.1,3.7,10.3,4.5l0.5,0.3c2.4,1.6,2.7,2,2.4,2.7c-0.2,0.5-0.6,0.9-1.1,1
	l-20-5.3v-0.1c-0.1-0.2-0.1-0.5-0.2-0.7C102.2,98.6,104.8,97.9,106.7,97.2L106.7,97.2z M98.2,124c-5.3-0.4-21.8-2-27.3-3.4
	c-1.9-0.5-3.8-0.9-5.7-1.3s-3.5-0.8-5.2-1.2c1.2-0.3,2.2-0.6,3-0.8c1.3-0.4,2.6-0.9,3.9-1.4l34.2,6.4c0.3,0.1,0.5,0.5,0.4,0.8
	C101.4,123.8,99.7,124.1,98.2,124z M117.6,118.5c-0.2,0.2-1.6,1.2-5.1,1c-3.7-0.2-10.2-1.1-10.6-1.2l-27.7-5.2
	c1.2-0.5,2.5-0.8,3.8-0.9c2.3-0.3,4.5-0.9,6.6-1.8l33.2,6.8C117.9,117.7,117.8,118.1,117.6,118.5L117.6,118.5z M124,112
	c-0.1,0.6-0.5,1.2-1,1.5c-1,0.4-2.1,0.5-3.2,0.2h-0.1h-0.1l-27.9-5.7c1.3-0.5,2.5-0.9,3-1.1c1.8-0.5,3.4-1.5,4.6-2.9l20.3,5.4h0.1
	c1,0.2,3.4,1.1,4.1,2.1C123.9,111.5,124,111.7,124,112L124,112z"/>
<path d="M109.8,13.9h0.1c1.1-0.1,1.9-1,1.9-2.1c0,0,0,0,0,0l-0.3-4c-0.1-1.1-1-1.9-2.1-1.9c-1.1,0.1-1.9,1-1.9,2.1l0.3,4
	C107.8,13.1,108.7,13.9,109.8,13.9z"/>
<path d="M108.5,22l0.3,4c0.1,1,0.9,1.9,2,1.9h0.1c1.1-0.1,1.9-1,1.9-2.1c0,0,0,0,0,0l-0.3-4c-0.1-1.1-1-1.9-2.1-1.9
	C109.2,19.9,108.4,20.9,108.5,22L108.5,22z"/>
<path d="M109.5,35.9l0.3,4c0.1,1,0.9,1.9,2,1.9h0.2c1.1-0.1,1.9-1,1.9-2.1c0,0,0,0,0,0l-0.3-4c-0.1-1.1-1-1.9-2.1-1.9
	C110.2,33.9,109.4,34.8,109.5,35.9L109.5,35.9z"/>
<path d="M111.5,63.9l0.3,4c0.1,1,0.9,1.9,2,1.9h0.2c1.1-0.1,1.9-1,1.9-2.1c0,0,0,0,0,0l-0.3-4c-0.1-1.1-1-1.9-2.1-1.9
	C112.2,61.8,111.4,62.8,111.5,63.9L111.5,63.9z"/>
<path d="M110.5,49.9l0.3,4c0.1,1,0.9,1.9,2,1.9h0.2c1.1-0.1,1.9-1,1.9-2.1c0,0,0,0,0,0l-0.3-4c-0.1-1.1-1-1.9-2.1-1.9
	C111.2,47.8,110.4,48.8,110.5,49.9L110.5,49.9z"/>
<path d="M91.2,6L91.2,6c1.1,0,2-0.9,2.1-1.9l0.1-2c0-1.1-0.8-2-1.9-2.1s-2,0.8-2.1,1.9l-0.1,2C89.2,5,90.1,6,91.2,6
	C91.2,6,91.2,6,91.2,6z"/>
<path d="M90.4,36.5L90.4,36.5c1.1,0,2-0.9,2.1-2l0.1-4.4c0-1.1-0.8-2-1.9-2h-0.1c-1.1,0-2,0.9-2,2l-0.1,4.4
	C88.4,35.6,89.3,36.5,90.4,36.5z"/>
<path d="M90.8,21.3L90.8,21.3c1.1,0,2-0.9,2.1-2L93,15c0.1-1.1-0.8-2-1.9-2.1c0,0-0.1,0-0.1,0l0,0c-1.1,0-2,0.9-2,1.9l-0.1,4.4
	C88.9,20.3,89.7,21.2,90.8,21.3z"/>
<path d="M90,49.4L90,49.4c1.1,0,2-0.9,2.1-2l0.1-2c0-1.1-0.8-2-1.9-2c-1.1,0-2,0.8-2.1,1.9l-0.1,2C88,48.4,88.9,49.4,90,49.4z"/>
<path d="M102.3,56.7c-1.1,0-2,0.9-1.9,2l0.1,2c0,1.1,0.9,2,2,2h0.1c1.1,0,2-0.9,1.9-2l-0.1-2C104.3,57.6,103.4,56.7,102.3,56.7
	C102.3,56.7,102.3,56.7,102.3,56.7z"/>
<path d="M101.9,42c-1.1,0-1.9,0.9-1.9,2l0.1,4.2c0,1.1,0.9,2,2,2h0.1c1.1,0,2-0.9,1.9-2l-0.1-4.2C103.9,42.8,103,42,101.9,42z"/>
<path d="M101.5,27.3c-1.1,0-2,0.9-1.9,2l0.1,4.2c0,1.1,0.9,2,2,2h0.1c1.1,0,2-0.9,1.9-2l-0.1-4.2C103.5,28.1,102.6,27.2,101.5,27.3
	C101.5,27.3,101.5,27.3,101.5,27.3z"/>
<path d="M101.1,12.5c-1.1,0-2,0.9-1.9,2.1l0.1,4.2c0,1.1,0.9,2,2,2h0.1c1.1,0,2-0.9,1.9-2l-0.1-4.2
	C103.1,13.4,102.2,12.5,101.1,12.5C101.1,12.5,101.1,12.5,101.1,12.5z"/>
<path d="M100.8,6L100.8,6c1.1,0,2-0.9,2-2l-0.1-2c0-1.1-1-2-2.1-1.9s-2,1-1.9,2.1l0.1,2C98.9,5.2,99.8,6,100.8,6z"/>
<path d="M81.1,26.6h0.1c1.1,0,1.9-0.8,2-1.9l0.3-4c0.1-1.1-0.8-2.1-1.9-2.1c-1.1-0.1-2.1,0.8-2.1,1.9l-0.3,4
	C79.1,25.5,80,26.5,81.1,26.6C81.1,26.6,81.1,26.6,81.1,26.6z"/>
<path d="M82.1,12.6h0.1c1.1,0,1.9-0.8,2-1.9l0.3-4c0.1-1.1-0.8-2.1-1.9-2.1c-1.1-0.1-2.1,0.8-2.1,1.9l-0.3,4
	C80.1,11.5,81,12.5,82.1,12.6C82.1,12.6,82.1,12.6,82.1,12.6z"/>
<path d="M79.1,54.5h0.2c1.1,0,1.9-0.8,2-1.9l0.3-4c0.1-1.1-0.8-2.1-1.9-2.1c-1.1-0.1-2.1,0.8-2.1,1.9l-0.3,4
	C77.2,53.4,78,54.4,79.1,54.5C79.1,54.5,79.1,54.5,79.1,54.5z"/>
<path d="M80.1,40.5h0.2c1.1,0,1.9-0.8,2-1.9l0.3-4c0.1-1.1-0.8-2.1-1.9-2.1c-1.1-0.1-2.1,0.8-2.1,1.9l-0.3,4
	C78.2,39.5,79,40.4,80.1,40.5C80.1,40.5,80.1,40.5,80.1,40.5z"/>
</svg>
